<?xml version="1.0" encoding="UTF-8" standalone="no"?>
<!-- Created with Inkscape (http://www.inkscape.org/) -->

<svg
   xmlns:dc="http://purl.org/dc/elements/1.1/"
   xmlns:cc="http://creativecommons.org/ns#"
   xmlns:rdf="http://www.w3.org/1999/02/22-rdf-syntax-ns#"
   xmlns:svg="http://www.w3.org/2000/svg"
   xmlns="http://www.w3.org/2000/svg"
   xmlns:sodipodi="http://sodipodi.sourceforge.net/DTD/sodipodi-0.dtd"
   xmlns:inkscape="http://www.inkscape.org/namespaces/inkscape"
   id="svg2"
   version="1.1"
   inkscape:version="0.91 r13725"
   xml:space="preserve"
   width="413.67178"
   height="549.45575"
   viewBox="0 0 413.67179 549.45575"
   sodipodi:docname="confident.svg"><metadata
     id="metadata8"><rdf:RDF><cc:Work
         rdf:about=""><dc:format>image/svg+xml</dc:format><dc:type
           rdf:resource="http://purl.org/dc/dcmitype/StillImage" /><dc:title /></cc:Work></rdf:RDF></metadata><defs
     id="defs6"><clipPath
       clipPathUnits="userSpaceOnUse"
       id="clipPath16"><path
         d="m 0,566.93 566.93,0 L 566.93,0 0,0 0,566.93 Z"
         id="path18"
         inkscape:connector-curvature="0" /></clipPath></defs><sodipodi:namedview
     pagecolor="#ffffff"
     bordercolor="#666666"
     borderopacity="1"
     objecttolerance="10"
     gridtolerance="10"
     guidetolerance="10"
     inkscape:pageopacity="0"
     inkscape:pageshadow="2"
     inkscape:window-width="1366"
     inkscape:window-height="741"
     id="namedview4"
     showgrid="false"
     fit-margin-top="0"
     fit-margin-left="0"
     fit-margin-right="0"
     fit-margin-bottom="0"
     inkscape:zoom="1"
     inkscape:cx="-31.68644"
     inkscape:cy="282.52801"
     inkscape:window-x="0"
     inkscape:window-y="27"
     inkscape:window-maximized="1"
     inkscape:current-layer="g10" /><g
     id="g10"
     inkscape:groupmode="layer"
     inkscape:label="freedom-1431380"
     transform="matrix(1.25,0,0,-1.25,-177.98903,619.25899)"><g
       id="g20"
       transform="translate(232.9136,468.0059)"><path
         d="M 0,0 C 0.005,0.001 0.011,0.004 0.015,0.011 L 0.016,0 C 0.011,0 0.01,-0.001 0,0 m 240.394,-407.068 c -0.096,0.82 0.118,1.572 -0.138,2.067 -0.282,0.483 -1.517,1.031 -1.517,1.031 0,0 1.107,2.058 0.162,3.987 -0.952,1.908 -1.692,1.656 -3.727,2.66 -2.044,1.005 -2.792,1.517 -2.792,1.517 0,0 -2.43,0.933 -4.275,2.431 -0.896,0.742 -1.434,1.312 -1.773,1.708 -1.129,0.878 -3.43,2.987 -4.313,3.267 -0.767,0.236 -0.543,0.658 -1.867,1.743 -1.608,1.318 -3.316,4.558 -4.707,7.28 1.515,1.053 4.215,2.007 6.97,5.405 1.153,1.416 2.125,5.464 1.239,8.57 -0.31,0.657 -40.652,48.572 -42.096,51.485 -3.77,7.616 -2.492,5.237 -5.452,9.383 -1.511,2.123 -18.33,16.824 -26.408,24.281 -8.197,5.815 -8.654,10.929 -11.68,11.386 -1.439,0.23 -1.145,1.646 -2.417,1.941 -1.981,0.408 -3.511,3.141 -5.237,4.57 -0.436,0.337 -3.092,1.952 -5.506,3.504 4.549,-1.002 8.417,-2.188 11.114,-3.615 12.039,-6.361 17.487,11.519 -1.023,36.144 -3.227,4.285 -8.083,23.776 -8.894,20.214 -1.834,-0.016 -1.672,-4.188 -13.018,17.242 0.309,1.553 -0.521,21.708 -5.363,26.825 -0.941,0.995 -1.066,8.149 1.043,9.377 l -0.137,9.582 c 0.306,-0.579 0.555,-1.064 0.724,-1.418 0.308,-0.649 0.856,-1.91 1.41,-3.204 0.031,0.029 0.054,0.071 0.087,0.096 1.233,0.92 3.114,1.378 4.458,2.091 1.023,0.567 15.18,7.643 16.11,8.064 4.29,2.038 9.063,7.922 10.68,9.258 1.426,1.217 3.473,2.092 4.993,3.192 2.242,1.658 4.22,3.291 6.475,5.062 2.89,2.31 5.743,5.453 8.573,7.799 1.925,1.557 3.408,2.173 5.386,3.574 1.321,0.93 3.278,2.575 4.561,3.565 0.939,0.738 7.146,4.877 8.896,5.658 0.077,0.666 -1.154,2.988 -1.669,3.359 -0.119,0.093 -0.244,0.304 -0.383,0.594 5.078,3.35 11.11,8.475 12.48,8.902 3.354,1.042 4.848,2.587 5.239,3.347 0.379,0.786 1.451,1.296 1.251,3.329 0.389,1.189 0.006,2.716 0.006,2.716 0,0 0.681,0.886 1.298,1.777 0.599,0.881 0.968,2.095 0.968,2.095 0,0 0.821,1.031 1.263,2.652 0.388,1.612 0.484,2.332 -0.409,2.691 -0.89,0.351 -1.729,-0.51 -2.061,-1.391 -0.386,-0.913 -1.226,-2.398 -1.226,-2.398 0,0 -1.219,-1.717 -2.301,-2.965 -0.567,0.683 -1.064,1.178 -1.064,1.178 0,0 0.243,1.418 0.472,2.985 0.258,1.549 0.558,2.852 0.919,4.017 0.326,1.162 0.413,2.042 0.407,2.67 -0.034,0.619 0.522,1.002 0.286,1.549 -0.273,0.554 -1.077,1.262 -1.686,0.901 -0.642,-0.344 -0.786,-0.661 -1.025,-1.634 -0.209,-1.004 -1.018,-3.243 -1.322,-4.289 -0.314,-1.011 -0.393,-1.343 -0.772,-1.925 -0.014,1.437 -0.026,1.809 -0.149,2.425 0.51,1.174 0.594,2.459 1.226,4.275 0.641,1.814 0.732,2.733 0.892,3.488 0.155,0.724 -0.143,1.676 -0.903,1.894 -0.793,0.229 -1.677,0.01 -2.032,-1.11 -0.307,-1.119 -0.99,-3.251 -1.587,-4.648 -0.615,-1.4 -1.048,-2.537 -1.215,-3.775 -0.484,0.321 -0.638,1.542 -0.793,2.457 0.42,2.344 0.199,2.649 0.199,2.649 0,0 0.253,1.48 0.257,2.756 -0.029,1.267 0.043,1.709 -0.842,2.101 -0.885,0.341 -1.775,-0.304 -2.078,-1.946 -0.32,-1.646 -0.765,-3.555 -1.043,-4.568 -0.275,-0.944 -0.615,-2.179 -0.176,-3.132 0.478,-0.996 0.481,-2.206 0.476,-3.152 -0.03,-0.93 0.09,-1.333 0.09,-1.333 0,0 -1.084,2.513 -1.574,2.999 -0.743,1.71 -1.566,2.95 -3.276,3.973 -1.711,1.012 -2.165,0.152 -2.282,-0.393 0.258,-0.591 0.613,-1.295 1.502,-2.333 0.365,-1.481 0.41,-1.867 0.487,-2.5 0.057,-0.656 0.148,-0.94 0.567,-1.495 0.679,-1.449 0.851,-2.05 1.309,-3.55 0.466,-1.497 0.906,-2.522 1.494,-4.208 0.494,-1.355 -5.907,-5.301 -8.989,-6.707 -0.212,0.322 -0.413,0.633 -0.596,0.926 -2.566,0.013 -7.612,-3.492 -8.417,-3.504 -2.146,0.049 -19.332,-10.237 -23.051,-12.673 -3.934,-2.592 -13.511,-2.144 -16.185,-7.609 -4.227,-0.419 -24.063,-10.236 -23.557,-10.966 -0.41,-0.889 -0.996,-0.853 -1.486,-1.329 -2.991,0.964 -6.211,1.551 -9.083,1.525 -0.919,-0.015 -3.679,-0.662 -4.065,-2.321 -1.983,-1.84 -2.907,0.124 -4.662,0.495 -1.142,0.229 -1.886,1.95 -3.072,1.192 -0.402,0.4 -1.117,-1.478 -1.455,-1.311 0.392,0.719 0.754,1.683 1.106,2.302 0.857,-0.124 2.14,0.405 2.949,1.735 1.322,2.169 1.641,4.294 3.207,6.619 -0.385,0.449 -0.718,0.901 -1.128,1.35 0.71,0.939 0.629,1.877 1.116,2.801 1.963,3.699 4.027,7.011 3.335,10.657 0.12,0.133 0.248,0.262 0.368,0.372 -0.931,1.273 -1.312,2.773 -2.212,3.941 0.125,0.129 0.258,0.253 0.362,0.371 -0.557,0.797 -0.495,1.578 -0.834,2.312 -0.447,1.006 -1.096,1.511 -1.459,2.464 -0.086,0.229 0.058,0.791 -0.023,0.987 -0.024,0.095 -0.671,0.281 -0.858,0.619 -0.591,1.053 -1.095,2.621 -1.587,3.545 -0.434,0.858 -2.546,2.021 -3.17,2.474 -1.119,0.939 -2.192,1.864 -3.296,2.816 -0.381,0.129 -1.58,-0.042 -1.749,0.015 -1.365,0.291 -1.746,0.939 -3.18,-0.496 -0.448,0.148 -1.176,0.687 -1.706,0.744 -0.278,0.019 -0.315,-0.31 -0.61,-0.377 -0.733,-0.157 -2.091,-0.056 -2.831,0.11 -0.129,-0.448 -0.129,-0.234 0.253,-0.734 -1.015,-0.563 -2.673,-0.615 -3.817,-0.829 -0.606,-0.138 -0.049,-1.544 -1.707,-1.229 -0.262,-0.696 0.329,-0.205 0,-0.987 -0.628,0 -1.473,-0.153 -2.092,-0.358 0.101,-0.257 0.182,-0.505 0.243,-0.729 -0.3,-0.262 -0.363,-0.314 -0.606,-0.395 -0.128,-0.468 -0.175,-0.096 0.115,-0.591 -3.379,-3.432 -5.018,-7.044 -5.652,-10.538 -0.081,-0.481 0.196,-1.105 0.128,-1.62 -0.315,-1.52 -0.913,-2.721 -0.623,-4.27 -0.401,-0.128 -0.939,0.014 -1.349,0.115 -0.896,-1.125 0.037,-2.174 -0.125,-3.308 -0.381,-2.435 -2.691,-4.932 -1.228,-7.363 0.471,0.033 1.12,-0.119 1.586,-0.348 0.74,-0.367 0.138,-1.815 0.119,-2.554 -0.023,-0.739 0.291,-1.52 0.23,-2.231 -0.063,-0.9 -0.474,-1.696 -0.616,-2.573 -0.118,-0.906 -1.397,0.099 -1.606,-0.191 -2.926,2.635 -7.72,-0.205 -8.817,3.275 -0.951,3.016 -3.335,6.375 -5.574,6.814 -0.245,0.05 -0.625,-0.03 -1.081,-0.187 -0.505,5.932 -2.983,14.458 -2.042,12.356 0.889,-0.003 -5.017,14.141 -7.177,17.799 -0.287,5.742 -2.402,15.806 -2.637,20.505 -0.209,4.448 -0.949,24.034 -2.242,25.715 -0.433,0.596 0.007,6.123 -1.149,8.612 -0.866,0.135 -1.939,0.261 -3.096,0.368 -0.065,1.009 -0.085,1.961 -0.128,2.41 -0.32,3.207 -1.121,5.872 0.059,8.367 -0.005,0.003 -0.007,0 -0.012,0.002 0.099,0.201 0.23,0.472 0.349,0.701 0.063,0.117 0.12,0.231 0.173,0.347 0.044,0.088 0.073,0.142 0.073,0.142 l -10e-4,0.02 c 0.633,1.486 0.573,3.048 0.982,4.873 0.19,0.861 0.698,1.598 0.8,2.394 0.172,1.348 -0.475,2.206 -1.18,3.027 0.05,0.106 0.099,0.231 0.107,0.376 0.002,0.021 0,0.061 -10e-4,0.11 0.003,0.004 0.011,0.005 0.022,0.008 C 16,2.135 15.989,2.2 15.976,2.27 c -0.024,0.222 -0.058,0.529 -0.094,0.823 -0.028,0.791 0.076,1.679 0.19,2.579 0.003,0.018 0.005,0.034 0.01,0.047 -0.004,0.012 0,0.022 10e-4,0.031 -0.003,0 -10e-4,-0.002 -10e-4,-0.002 0,0.043 -0.007,0.081 -0.009,0.151 -0.003,0.013 -0.006,0.027 -0.006,0.041 0.01,0.003 0.027,0.004 0.039,0.006 0.222,2.288 0.549,4.438 1.027,6.396 0.042,0.116 0.089,0.235 0.137,0.338 0.199,0.412 0.43,1.394 0.499,1.623 0.061,0.205 0.226,0.645 0.276,0.867 0.007,0.003 0.017,10e-4 0.023,10e-4 0.208,2.357 3.538,9.85 -0.505,10.235 -0.864,-0.544 -1.269,-1.672 -1.527,-2.996 l -0.011,-0.015 c 0,0 -0.002,-0.037 -0.01,-0.095 C 16,22.221 15.982,22.141 15.97,22.056 c -0.055,-0.299 -0.096,-0.609 -0.138,-0.922 -0.013,-0.046 -0.023,-0.089 -0.031,-0.119 -0.028,-0.07 -0.055,-0.164 -0.079,-0.267 -0.013,0.002 -0.028,0.007 -0.042,0.01 -0.232,-2.336 -1.46,-4.081 -2.167,-6.108 -0.507,-1.473 -0.517,-3.058 -1.525,-4.195 0.016,-0.006 0.026,-0.008 0.042,-0.013 -0.021,-0.019 -0.058,-0.047 -0.1,-0.078 -0.015,10e-4 -0.037,0.003 -0.054,0.006 -0.223,0.01 -0.431,-0.02 -0.633,-0.067 -0.002,0.003 -0.007,0.004 -0.005,0.003 -0.164,0 -0.199,0.07 -0.258,0.153 0.003,0.006 0.012,0.014 0.017,0.02 -0.02,0.007 -0.035,0.013 -0.051,0.017 -0.006,0.007 -0.006,0.014 -0.014,0.021 -0.098,0.1 -0.101,0.108 -0.206,0.367 -0.619,3.536 -0.271,7.826 -1.165,11.144 -0.012,0 -0.021,-10e-4 -0.026,-0.002 -0.023,0.059 -0.047,0.107 -0.067,0.159 -0.209,2.283 0.088,5.398 -2.923,5.208 C 5.367,25.654 6.135,23.68 6.331,21.738 6.458,20.463 6.344,19.177 6.341,17.847 6.331,16.624 6.634,15.37 6.762,14.103 6.987,11.91 6.702,9.897 7.314,8.152 7.336,8.143 7.357,8.138 7.383,8.128 7.386,8.061 7.384,7.996 7.383,7.936 7.352,7.94 7.323,7.943 7.293,7.949 7.286,7.969 7.284,7.991 7.284,8.016 7.274,8.118 7.19,8.208 7.093,8.291 6.97,8.974 6.835,9.642 6.511,10.17 c -0.028,0.153 -0.207,0.293 -0.243,0.365 -0.047,0.123 -0.258,0.23 -0.258,0.23 0,0 -0.282,0.206 -0.423,0.333 C 5.536,11.14 5.432,11.192 5.323,11.239 3.264,12.38 2.06,9.542 2.61,7.249 2.729,6.76 2.93,6.218 3.169,5.644 2.96,5.746 2.747,5.827 2.682,5.861 2.643,5.883 2.576,5.898 2.5,5.905 -1.365,6.988 -0.35,0.708 -0.588,-2.318 -0.634,-2.869 -0.776,-3.4 -0.79,-3.891 c -0.09,-3.856 2.857,-6.564 3.749,-9.046 0.003,10e-4 0.005,-0.003 0.006,-0.005 0.028,-0.057 0.049,-0.117 0.081,-0.181 0.031,-0.062 0.083,-0.138 0.148,-0.219 -0.002,-0.362 0.398,-0.709 0.574,-1.096 0.638,-1.409 0.857,-3.536 0.495,-5.672 -0.019,-0.247 -0.054,-0.48 -0.081,-0.72 -0.656,-0.209 -1.296,-0.479 -1.905,-0.786 -0.027,-0.159 -0.08,-0.312 -0.124,-0.474 -0.136,0.045 -0.39,0.048 -0.701,0.047 -1.279,-0.75 -3.424,-1.442 -3.964,-1.904 0.308,-2.822 0.347,-9.34 0.287,-10.335 -0.036,-1.618 0.541,-4.426 0.574,-6.029 0.035,-2.444 -0.728,-4.435 -0.861,-6.89 -0.207,-3.683 0.736,-6.125 0.58,-9.814 -0.099,-2.877 -0.248,-5.453 -0.259,-8.224 0.013,-1.872 0.53,-4.036 0.387,-5.914 -0.121,-2.095 -2.03,-9.43 -1.145,-14.084 0.205,-1.002 1.549,-4.355 1.73,-5.151 0.399,-1.677 0.548,-3.525 0.643,-5.258 0.075,-1.233 0.684,-2.573 0.731,-3.85 0.02,-1.169 6.558,-24.875 6.701,-26.047 0.103,-0.719 5.567,-18.722 6.477,-21.817 0.061,-1.689 1.83,-2.315 1.46,-3.631 1.193,-1.291 0.634,-3.924 1.235,-5.301 2.559,-5.879 1.204,-27.281 0.35,-41.231 -1.378,-0.115 -7.53,-12.725 -7.53,-12.725 -1.786,-2.139 -4.46,-3.273 -5.572,-5.736 -10.688,-23.653 -37.282,-24.272 -41.894,-36.558 -3.474,-9.247 13.682,-5.624 21.345,-5.387 6.797,0.218 16.531,8.075 30.413,6.826 -1.318,-2.089 -2.309,-3.781 -2.461,-4.418 -0.511,-2.223 -4.103,-5.48 -5.572,-7.25 -1.429,-1.776 -2.607,-3.708 -3.864,-5.376 -0.663,-0.843 -7.743,-10.317 -8.558,-10.907 -0.639,-1.134 -6.795,-9.051 -12.403,-16.289 -17.717,-7.94 -34.371,-33.414 -37.125,-36.879 -1.485,-1.87 -7.354,-3.733 -9.113,-5.354 -2.801,-2.564 -8.64,-9.629 -13.734,-13.923 -1.997,-1.682 -5.548,-1.011 -5.739,-4.281 -0.346,-6.23 8.431,-11.833 8.65,-12.138 -0.371,-0.204 -2.816,-3.931 -3.135,-4.79 0.039,-4.689 -2.874,-9.347 -2.955,-9.489 0.01,0 -1.839,-4.094 -2.283,-4.793 -2.011,-3.102 -4.065,-6.567 -4.489,-10.333 -0.024,-0.23 0.21,-0.94 -0.424,-1.857 -0.248,-0.363 -0.533,-2.8 -0.439,-3.125 0.638,-2.466 5.219,-7.135 9.041,-7.56 2.254,-0.231 4.561,-1.054 6.501,-0.594 1.891,0.467 5.68,3.848 6.047,7.247 0.163,1.332 0.825,3.954 1.167,6.615 0.378,3.689 -0.248,6.255 0.464,7.415 0.167,0.28 1.034,-0.172 1.343,-0.009 5.905,3.069 4.747,5.065 5.142,7.043 0.1,0.476 -0.233,1.309 -0.223,1.769 0.127,1.905 0.19,3.384 0.399,5.098 0.116,0.852 0.482,1.358 0.511,2.106 0.877,-0.109 3.555,-0.414 4.289,0.02 3.283,1.906 11.705,13.006 15.246,15.579 1.778,0.876 3.688,1.604 5.308,2.668 0.177,0.288 5.457,4.222 7.703,6.012 6.872,5.607 16.647,12.329 17.535,12.772 12.031,6.016 35.159,30.381 38.649,33.317 4.53,3.789 5.318,4.878 8.754,9.253 2.163,2.745 3.751,3.404 6.81,5.163 0.772,0.457 7.563,4.641 8.85,5.636 7.152,5.542 6.638,3.419 14.098,2.723 9.65,-0.902 11.337,-3.517 17.288,-7.231 2.165,-1.339 12.531,-8.083 14.836,-8.281 4.596,-2.055 15.756,-9.632 17.477,-10.332 1.879,-1.325 6.986,-1.646 12.769,-6.073 1.242,-0.953 7.243,-3.416 10.26,-6.832 4.28,-4.859 10.794,-3.672 15.985,-12.89 0.619,-1.089 9.344,-15.054 17.27,-25.282 4.942,-6.372 11.237,-11.888 11.875,-14.812 2.589,-11.815 7.519,-15.961 13.048,-16.127 0.01,-0.707 0.004,-1.576 -0.064,-2.096 -0.135,-0.973 0.275,-3.468 0.452,-4.399 0.167,-0.924 0.481,-1.347 0.481,-1.347 0,0 -0.528,-0.636 -0.339,-1.666 0.192,-1.047 0.278,-3.725 1.078,-4.541 0.81,-0.811 3.398,-1.886 5.105,-2.34 1.701,-0.477 1.605,-0.661 3.168,-0.318 1.544,0.337 2.064,0.73 2.593,0.48 0.524,-0.256 2.912,-1.497 3.765,-2.534 0.843,-1.035 0.99,-2.807 1.491,-3.556 0.497,-0.752 3.003,-2.372 9.669,-1.854 6.679,0.5 12.741,3.245 13.836,3.747 1.12,0.512 1.316,0.421 1.221,1.248"
         style="fill:#000000;fill-opacity:1;fill-rule:evenodd;stroke:none"
         id="path22"
         inkscape:connector-curvature="0" /></g><g
       id="g24"
       transform="translate(273.3735,239.9072)"><path
         d="m 0,0 c 6.109,-1.527 13.625,-5.371 24.396,-4.496 6.858,0.558 30.268,-2.515 36.758,-2.136 0,0 -8.403,10.585 -7.243,18.788 1.163,8.206 1.247,10.951 -0.877,19.501 -2.126,8.56 -4.451,25.631 -7.983,30.316 -3.528,4.69 -6.568,16.895 -6.792,20.683 -0.157,2.965 -4.345,4.214 -3.407,19.607 0,0 -10.06,-5.914 -17.586,-4.318 -7.525,1.606 -9.016,7.854 -9.016,7.854 0,0 -2.008,-6.586 -6.025,-10.004 -6.276,-5.342 -10.146,-17.581 -3.521,-34.718 0,0 -1.292,-27.559 -1.812,-36.106 C -3.617,16.317 -4.285,16.59 -11.285,9.855 -11.505,9.654 -6.109,1.522 0,0"
         style="fill:#ffffff;fill-opacity:1;fill-rule:evenodd;stroke:none"
         id="path26"
         inkscape:connector-curvature="0" /></g><g
       id="g44"
       transform="translate(311.7852,229.1895)"><path
         d="m 0,0 c -5.086,-0.548 -10.371,-0.025 -15.488,1.569 -0.432,-3.276 -0.863,-6.522 -1.291,-9.739 5.084,-2.035 10.368,-3.001 15.483,-2.895 C -0.863,-7.406 -0.431,-3.718 0,0"
         style="fill:#ffffff;fill-opacity:1;fill-rule:evenodd;stroke:none"
         id="path46"
         inkscape:connector-curvature="0" /></g><g
       id="g48"
       transform="translate(309.4551,228.0137)"><path
         d="m 0,0 c -3.675,-0.396 -7.494,-0.019 -11.191,1.132 -0.314,-2.365 -0.626,-4.709 -0.938,-7.031 3.677,-1.475 7.497,-2.177 11.196,-2.105 C -0.621,-5.357 -0.311,-2.689 0,0"
         style="fill:#000000;fill-opacity:1;fill-rule:evenodd;stroke:none"
         id="path50"
         inkscape:connector-curvature="0" /></g><g
       id="g52"
       transform="translate(284.1709,331.7153)"><path
         d="m 0,0 0.285,6.019 6.67,-2.77 8.73,0.795 L 15.129,-2.832 6.872,1.33 0,0 Z"
         style="fill:#000000;fill-opacity:1;fill-rule:nonzero;stroke:none"
         id="path54"
         inkscape:connector-curvature="0" /></g><text
       xml:space="preserve"
       style="font-style:normal;font-variant:normal;font-weight:normal;font-stretch:condensed;font-size:17.440979px;line-height:125%;font-family:Impact;-inkscape-font-specification:'Impact, Condensed';text-align:start;letter-spacing:0px;word-spacing:0px;writing-mode:lr-tb;text-anchor:start;fill:#000000;fill-opacity:1;stroke:none;stroke-width:1px;stroke-linecap:butt;stroke-linejoin:miter;stroke-opacity:1"
       x="368.52844"
       y="-213.91924"
       id="text4145"
       sodipodi:linespacing="125%"
       transform="scale(0.72686532,-1.3757707)"><tspan
         sodipodi:role="line"
         id="tspan4147"
         x="368.52844"
         y="-213.91924">Open edX</tspan></text>
</g></svg>