<?xml version="1.0" encoding="UTF-8" standalone="no"?>
<svg
   xmlns:dc="http://purl.org/dc/elements/1.1/"
   xmlns:cc="http://creativecommons.org/ns#"
   xmlns:rdf="http://www.w3.org/1999/02/22-rdf-syntax-ns#"
   xmlns:svg="http://www.w3.org/2000/svg"
   xmlns="http://www.w3.org/2000/svg"
   xmlns:sodipodi="http://sodipodi.sourceforge.net/DTD/sodipodi-0.dtd"
   xmlns:inkscape="http://www.inkscape.org/namespaces/inkscape"
   width="52.765846mm"
   height="12.762017mm"
   viewBox="0 0 623.21866 150.73249"
   version="1.2"
   id="svg2"
   inkscape:version="0.91 r13725"
   sodipodi:docname="sad_trombone.svg">
  <metadata
     id="metadata982">
    <rdf:RDF>
      <cc:Work
         rdf:about="">
        <dc:format>image/svg+xml</dc:format>
        <dc:type
           rdf:resource="http://purl.org/dc/dcmitype/StillImage" />
        <dc:title>Sad Trombone</dc:title>
      </cc:Work>
    </rdf:RDF>
  </metadata>
  <sodipodi:namedview
     pagecolor="#ffffff"
     bordercolor="#666666"
     borderopacity="1"
     objecttolerance="10"
     gridtolerance="10"
     guidetolerance="10"
     inkscape:pageopacity="0"
     inkscape:pageshadow="2"
     inkscape:window-width="1366"
     inkscape:window-height="741"
     id="namedview980"
     showgrid="false"
     fit-margin-top="0"
     fit-margin-left="0"
     fit-margin-right="0"
     fit-margin-bottom="0"
     inkscape:zoom="1.2689075"
     inkscape:cx="55.467586"
     inkscape:cy="85.469539"
     inkscape:window-x="0"
     inkscape:window-y="27"
     inkscape:window-maximized="1"
     inkscape:current-layer="svg2" />
  <title
     id="title4">Sad Trombone</title>
  <desc
     id="desc6">Generated by MuseScore 2.0.2</desc>
  <defs
     id="defs8" />
  <g
     style="font-style:normal;font-weight:400;font-size:32px;font-family:FreeSerif;fill:none;fill-rule:evenodd;stroke:#000000;stroke-width:0.53333402;stroke-linecap:butt;stroke-linejoin:bevel;stroke-opacity:1"
     id="g388"
     font-style="normal"
     font-weight="400"
     font-size="32"
     transform="matrix(3.125,0,0,3.125,330.93199,35.88874)">
    <polyline
       style="fill:none"
       id="polyline390"
       points="0,0 87.3773,0 "
       vector-effect="none" />
    <polyline
       style="fill:none"
       id="polyline392"
       points="0,6.66667 87.3773,6.66667 "
       vector-effect="none" />
    <polyline
       style="fill:none"
       id="polyline394"
       points="0,13.3333 87.3773,13.3333 "
       vector-effect="none" />
    <polyline
       style="fill:none"
       id="polyline396"
       points="0,20 87.3773,20 "
       vector-effect="none" />
    <polyline
       style="fill:none"
       id="polyline398"
       points="0,26.6667 87.3773,26.6667 "
       vector-effect="none" />
  </g>
  <g
     style="font-style:normal;font-weight:400;font-size:32px;font-family:FreeSerif;fill:none;fill-rule:evenodd;stroke:#000000;stroke-width:0.53333402;stroke-linecap:butt;stroke-linejoin:bevel;stroke-opacity:1"
     id="g400"
     font-style="normal"
     font-weight="400"
     font-size="32"
     transform="matrix(3.125,0,0,3.125,0,35.88874)">
    <polyline
       style="fill:none"
       id="polyline402"
       points="0,0 105.898,0 "
       vector-effect="none" />
    <polyline
       style="fill:none"
       id="polyline404"
       points="0,6.66667 105.898,6.66667 "
       vector-effect="none" />
    <polyline
       style="fill:none"
       id="polyline406"
       points="0,13.3333 105.898,13.3333 "
       vector-effect="none" />
    <polyline
       style="fill:none"
       id="polyline408"
       points="0,20 105.898,20 "
       vector-effect="none" />
    <polyline
       style="fill:none"
       id="polyline410"
       points="0,26.6667 105.898,26.6667 "
       vector-effect="none" />
  </g>
  <g
     style="font-style:normal;font-weight:400;font-size:32px;font-family:FreeSerif;fill:none;fill-rule:evenodd;stroke:#000000;stroke-width:1.06666994;stroke-linecap:butt;stroke-linejoin:bevel;stroke-opacity:1"
     id="g536"
     font-style="normal"
     font-weight="400"
     font-size="32"
     transform="matrix(3.125,0,0,3.125,600.65304,35.88874)">
    <polyline
       style="fill:none"
       id="polyline538"
       points="0.533334,0 0.533334,26.6667 "
       vector-effect="none" />
  </g>
  <g
     style="font-style:normal;font-weight:400;font-size:32px;font-family:FreeSerif;fill:none;fill-rule:evenodd;stroke:#000000;stroke-width:1.06666994;stroke-linecap:butt;stroke-linejoin:bevel;stroke-opacity:1"
     id="g540"
     font-style="normal"
     font-weight="400"
     font-size="32"
     transform="matrix(3.125,0,0,3.125,327.59899,35.88874)">
    <polyline
       style="fill:none"
       id="polyline542"
       points="0.533334,0 0.533334,26.6667 "
       vector-effect="none" />
  </g>
  <g
     style="font-style:normal;font-weight:400;font-size:27px;font-family:MScore;fill:#000000;fill-opacity:1;fill-rule:evenodd;stroke:none;stroke-width:1;stroke-linecap:square;stroke-linejoin:bevel"
     id="g546"
     font-style="normal"
     font-weight="400"
     font-size="27"
     transform="matrix(3.125,0,0,3.125,450.21299,108.80575)">
    <path
       style="fill-rule:nonzero"
       inkscape:connector-curvature="0"
       id="path548"
       d="m 5.82812,8.40625 c 0,0.33333 -0.16666,0.5 -0.5,0.5 -0.33333,0 -0.5,-0.16667 -0.5,-0.5 l 0,-3.89063 -2.25,0.84376 0,4.26562 c 0,0.33333 -0.16666,0.5 -0.5,0.5 -0.33333,0 -0.5,-0.16667 -0.5,-0.5 l 0,-3.92188 -0.843745,0.3125 C 0.723958,6.02604 0.65625,6.03125 0.53125,6.03125 0.385417,6.03125 0.260417,5.97917 0.15625,5.875 0.0520833,5.77083 0,5.65104 0,5.51562 L 0,3.875 C 0,3.61458 0.114583,3.44792 0.34375,3.375 l 1.23437,-0.42188 0,-4.32812 -0.843745,0.29688 C 0.723958,-1.06771 0.65625,-1.0625 0.53125,-1.0625 c -0.145833,0 -0.270833,-0.05208 -0.375,-0.15625 C 0.0520833,-1.32292 0,-1.44271 0,-1.57812 l 0,-1.64063 c 0,-0.25 0.114583,-0.40625 0.34375,-0.46875 l 1.23437,-0.48438 0,-4.23437 c 0,-0.33333 0.16667,-0.5 0.5,-0.5 0.33334,0 0.5,0.16667 0.5,0.5 l 0,3.89063 2.25,-0.84376 0,-4.26562 c 0,-0.33333 0.16667,-0.5 0.5,-0.5 0.33334,0 0.5,0.16667 0.5,0.5 l 0,3.92188 0.875,-0.3125 c 0.01042,-0.01042 0.06771,-0.01563 0.17188,-0.01563 0.125,0 0.26042,0.05208 0.40625,0.15625 0.10417,0.10417 0.15625,0.22396 0.15625,0.35938 l 0,1.64062 c 0,0.25 -0.125,0.41667 -0.375,0.5 l -1.23438,0.42188 0,4.32812 0.875,-0.29688 C 6.71354,1.06771 6.77083,1.0625 6.875,1.0625 7,1.0625 7.13542,1.11458 7.28125,1.21875 7.38542,1.32292 7.4375,1.44271 7.4375,1.57812 l 0,1.64063 c 0,0.22917 -0.125,0.38542 -0.375,0.46875 l -1.23438,0.48438 0,4.23437 m -1,-10.96875 -2.25,0.79688 0,4.32812 2.25,-0.79688 0,-4.32812"
       vector-effect="none" />
  </g>
  <g
     style="font-style:normal;font-weight:400;font-size:27px;font-family:MScore;fill:#000000;fill-opacity:1;fill-rule:evenodd;stroke:none;stroke-width:1;stroke-linecap:square;stroke-linejoin:bevel"
     id="g554"
     font-style="normal"
     font-weight="400"
     font-size="27"
     transform="matrix(3.125,0,0,3.125,226.73499,87.97175)">
    <path
       style="fill-rule:nonzero"
       inkscape:connector-curvature="0"
       id="path556"
       d="m 1.23438,-1.10938 0,2.07813 c 0,0.73958 0.03645,1.33333 0.10937,1.78125 C 1.92708,2.25 2.33854,1.88021 2.57812,1.64062 2.85938,1.35938 3.14062,0.971354 3.42188,0.476562 3.70312,-0.0182292 3.84375,-0.510417 3.84375,-1 c 0,-0.48958 -0.10417,-0.91146 -0.3125,-1.26562 -0.20833,-0.35417 -0.48958,-0.53126 -0.84375,-0.53126 -0.41667,0 -0.76562,0.15626 -1.04688,0.46876 -0.27083,0.35416 -0.40624,0.76041 -0.40624,1.21874 M 0.125,3.71875 -0.21875,-12.3438 c 0.25,-0.1354 0.497396,-0.2031 0.742188,-0.2031 0.244791,0 0.492182,0.0677 0.742182,0.2031 L 1.0625,-3.03125 c 0.71875,-0.61458 1.54167,-0.92187 2.46875,-0.92187 0.6875,0 1.26042,0.28124 1.71875,0.84374 0.45833,0.5625 0.6875,1.20313 0.6875,1.92188 0,0.458333 -0.15104,0.942708 -0.45312,1.453125 C 5.20312,0.734375 4.90625,1.10417 4.59375,1.375 4.41667,1.51042 3.96875,1.85938 3.25,2.42188 3.03125,2.57812 2.77865,2.76302 2.49219,2.97656 2.20573,3.1901 2.02604,3.32292 1.95312,3.375 1.82812,3.44792 1.71354,3.58854 1.60938,3.79688 1.48438,3.97396 1.34375,4.125 1.1875,4.25 1.0625,4.35417 0.911458,4.40625 0.734375,4.40625 0.557292,4.40625 0.416667,4.34375 0.3125,4.21875 0.1875,4.09375 0.125,3.92708 0.125,3.71875"
       vector-effect="none" />
  </g>
  <g
     style="font-style:normal;font-weight:400;font-size:27px;font-family:MScore;fill:none;fill-rule:evenodd;stroke:#000000;stroke-width:0.86666697;stroke-linecap:round;stroke-linejoin:bevel;stroke-opacity:1"
     id="g560"
     font-style="normal"
     font-weight="400"
     font-size="27"
     transform="matrix(3.125,0,0,3.125,505.6,108.80575)">
    <polyline
       style="fill:none"
       id="polyline562"
       points="0,-1.024 0,-23.3333 "
       vector-effect="none" />
  </g>
  <g
     style="font-style:normal;font-weight:400;font-size:27px;font-family:MScore;fill:none;fill-rule:evenodd;stroke:#000000;stroke-width:0.86666697;stroke-linecap:round;stroke-linejoin:bevel;stroke-opacity:1"
     id="g564"
     font-style="normal"
     font-weight="400"
     font-size="27"
     transform="matrix(3.125,0,0,3.125,383.63999,98.38875)">
    <polyline
       style="fill:none"
       id="polyline566"
       points="0,-1.024 0,-22.5 "
       vector-effect="none" />
  </g>
  <g
     style="font-style:normal;font-weight:400;font-size:27px;font-family:MScore;fill:none;fill-rule:evenodd;stroke:#000000;stroke-width:0.86666697;stroke-linecap:round;stroke-linejoin:bevel;stroke-opacity:1"
     id="g568"
     font-style="normal"
     font-weight="400"
     font-size="27"
     transform="matrix(3.125,0,0,3.125,277.15199,87.97175)">
    <polyline
       style="fill:none"
       id="polyline570"
       points="0,-1.024 0,-21.6667 "
       vector-effect="none" />
  </g>
  <g
     style="font-style:normal;font-weight:400;font-size:27px;font-family:MScore;fill:none;fill-rule:evenodd;stroke:#000000;stroke-width:0.86666697;stroke-linecap:round;stroke-linejoin:bevel;stroke-opacity:1"
     id="g572"
     font-style="normal"
     font-weight="400"
     font-size="27"
     transform="matrix(3.125,0,0,3.125,184.34,87.97175)">
    <polyline
       style="fill:none"
       id="polyline574"
       points="0,-1.024 0,-21.6667 "
       vector-effect="none" />
  </g>
  <g
     style="font-style:normal;font-weight:400;font-size:27px;font-family:MScore;fill:#000000;fill-opacity:1;fill-rule:evenodd;stroke:none;stroke-width:1;stroke-linecap:square;stroke-linejoin:bevel"
     id="g578"
     font-style="normal"
     font-weight="400"
     font-size="27"
     transform="matrix(3.125,0,0,3.125,477.892,108.80575)">
    <path
       style="fill-rule:nonzero"
       inkscape:connector-curvature="0"
       id="path580"
       d="m 8.51562,-1.76562 c 0,-0.30209 -0.11458,-0.5573 -0.34374,-0.76563 C 7.94271,-2.76042 7.68229,-2.875 7.39062,-2.875 6.85938,-2.875 5.79167,-2.34896 4.1875,-1.29688 2.54167,-0.223958 1.53125,0.541667 1.15625,1 0.96875,1.25 0.875,1.50521 0.875,1.76562 c 0,0.30209 0.114583,0.5573 0.34375,0.76563 C 1.42708,2.76042 1.6875,2.875 2,2.875 2.51042,2.875 3.58333,2.34896 5.21875,1.29688 6.83333,0.234375 7.83854,-0.53125 8.23438,-1 8.42188,-1.22917 8.51562,-1.48438 8.51562,-1.76562 M 7.125,-3.71875 c 1.51042,0 2.26562,0.65104 2.26562,1.95313 0,0.63541 -0.1875,1.374995 -0.5625,2.218745 C 8.46354,1.27604 7.97396,1.90625 7.35938,2.34375 6.00521,3.26042 4.30729,3.71875 2.26562,3.71875 0.755208,3.71875 0,3.06771 0,1.76562 0,1.18229 0.182292,0.453125 0.546875,-0.421875 0.901042,-1.26562 1.39583,-1.90625 2.03125,-2.34375 c 1.35417,-0.91667 3.05208,-1.375 5.09375,-1.375"
       vector-effect="none" />
  </g>
  <g
     style="font-style:normal;font-weight:400;font-size:27px;font-family:MScore;fill:#000000;fill-opacity:1;fill-rule:evenodd;stroke:none;stroke-width:1;stroke-linecap:square;stroke-linejoin:bevel"
     id="g586"
     font-style="normal"
     font-weight="400"
     font-size="27"
     transform="matrix(3.125,0,0,3.125,355.93199,98.38875)">
    <path
       style="fill-rule:nonzero"
       inkscape:connector-curvature="0"
       id="path588"
       d="m 8.51562,-1.76562 c 0,-0.30209 -0.11458,-0.5573 -0.34374,-0.76563 C 7.94271,-2.76042 7.68229,-2.875 7.39062,-2.875 6.85938,-2.875 5.79167,-2.34896 4.1875,-1.29688 2.54167,-0.223958 1.53125,0.541667 1.15625,1 0.96875,1.25 0.875,1.50521 0.875,1.76562 c 0,0.30209 0.114583,0.5573 0.34375,0.76563 C 1.42708,2.76042 1.6875,2.875 2,2.875 2.51042,2.875 3.58333,2.34896 5.21875,1.29688 6.83333,0.234375 7.83854,-0.53125 8.23438,-1 8.42188,-1.22917 8.51562,-1.48438 8.51562,-1.76562 M 7.125,-3.71875 c 1.51042,0 2.26562,0.65104 2.26562,1.95313 0,0.63541 -0.1875,1.374995 -0.5625,2.218745 C 8.46354,1.27604 7.97396,1.90625 7.35938,2.34375 6.00521,3.26042 4.30729,3.71875 2.26562,3.71875 0.755208,3.71875 0,3.06771 0,1.76562 0,1.18229 0.182292,0.453125 0.546875,-0.421875 0.901042,-1.26562 1.39583,-1.90625 2.03125,-2.34375 c 1.35417,-0.91667 3.05208,-1.375 5.09375,-1.375"
       vector-effect="none" />
  </g>
  <g
     style="font-style:normal;font-weight:400;font-size:27px;font-family:MScore;fill:#000000;fill-opacity:1;fill-rule:evenodd;stroke:none;stroke-width:1;stroke-linecap:square;stroke-linejoin:bevel"
     id="g594"
     font-style="normal"
     font-weight="400"
     font-size="27"
     transform="matrix(3.125,0,0,3.125,249.44399,87.97175)">
    <path
       style="fill-rule:nonzero"
       inkscape:connector-curvature="0"
       id="path596"
       d="m 8.51562,-1.76562 c 0,-0.30209 -0.11458,-0.5573 -0.34374,-0.76563 C 7.94271,-2.76042 7.68229,-2.875 7.39062,-2.875 6.85938,-2.875 5.79167,-2.34896 4.1875,-1.29688 2.54167,-0.223958 1.53125,0.541667 1.15625,1 0.96875,1.25 0.875,1.50521 0.875,1.76562 c 0,0.30209 0.114583,0.5573 0.34375,0.76563 C 1.42708,2.76042 1.6875,2.875 2,2.875 2.51042,2.875 3.58333,2.34896 5.21875,1.29688 6.83333,0.234375 7.83854,-0.53125 8.23438,-1 8.42188,-1.22917 8.51562,-1.48438 8.51562,-1.76562 M 7.125,-3.71875 c 1.51042,0 2.26562,0.65104 2.26562,1.95313 0,0.63541 -0.1875,1.374995 -0.5625,2.218745 C 8.46354,1.27604 7.97396,1.90625 7.35938,2.34375 6.00521,3.26042 4.30729,3.71875 2.26562,3.71875 0.755208,3.71875 0,3.06771 0,1.76562 0,1.18229 0.182292,0.453125 0.546875,-0.421875 0.901042,-1.26562 1.39583,-1.90625 2.03125,-2.34375 c 1.35417,-0.91667 3.05208,-1.375 5.09375,-1.375"
       vector-effect="none" />
  </g>
  <g
     style="font-style:normal;font-weight:400;font-size:27px;font-family:MScore;fill:#000000;fill-opacity:1;fill-rule:evenodd;stroke:none;stroke-width:1;stroke-linecap:square;stroke-linejoin:bevel"
     id="g602"
     font-style="normal"
     font-weight="400"
     font-size="27"
     transform="matrix(3.125,0,0,3.125,156.631,87.97175)">
    <path
       style="fill-rule:nonzero"
       inkscape:connector-curvature="0"
       id="path604"
       d="m 8.51562,-1.76562 c 0,-0.30209 -0.11458,-0.5573 -0.34374,-0.76563 C 7.94271,-2.76042 7.68229,-2.875 7.39062,-2.875 6.85938,-2.875 5.79167,-2.34896 4.1875,-1.29688 2.54167,-0.223958 1.53125,0.541667 1.15625,1 0.96875,1.25 0.875,1.50521 0.875,1.76562 c 0,0.30209 0.114583,0.5573 0.34375,0.76563 C 1.42708,2.76042 1.6875,2.875 2,2.875 2.51042,2.875 3.58333,2.34896 5.21875,1.29688 6.83333,0.234375 7.83854,-0.53125 8.23438,-1 8.42188,-1.22917 8.51562,-1.48438 8.51562,-1.76562 M 7.125,-3.71875 c 1.51042,0 2.26562,0.65104 2.26562,1.95313 0,0.63541 -0.1875,1.374995 -0.5625,2.218745 C 8.46354,1.27604 7.97396,1.90625 7.35938,2.34375 6.00521,3.26042 4.30729,3.71875 2.26562,3.71875 0.755208,3.71875 0,3.06771 0,1.76562 0,1.18229 0.182292,0.453125 0.546875,-0.421875 0.901042,-1.26562 1.39583,-1.90625 2.03125,-2.34375 c 1.35417,-0.91667 3.05208,-1.375 5.09375,-1.375"
       vector-effect="none" />
  </g>
  <g
     style="font-style:normal;font-weight:400;font-size:27px;font-family:MScore;fill:#000000;fill-opacity:1;fill-rule:evenodd;stroke:none;stroke-width:1;stroke-linecap:square;stroke-linejoin:bevel"
     id="g618"
     font-style="normal"
     font-weight="400"
     font-size="27"
     transform="matrix(3.125,0,0,3.125,13.334,98.38875)">
    <path
       style="fill-rule:nonzero"
       inkscape:connector-curvature="0"
       id="path620"
       d="m 9.92188,-6.90625 c 0,0 0.05208,0 0.15622,0 0.0625,-0.02083 0.1198,-0.03125 0.1719,-0.03125 1.9688,0 3.5885,0.69271 4.8594,2.07812 C 16.3698,-3.48438 17,-1.88021 17,-0.046875 17,2.21354 16.0625,4.05729 14.1875,5.48438 13.6979,5.86979 13.0573,6.1875 12.2656,6.4375 c 0.0834,1.13542 0.125,2.05729 0.125,2.76562 0,0.13542 -0.0156,0.64584 -0.0468,1.53128 -0.073,1.6354 -0.6355,3.0521 -1.6876,4.25 -1.02078,1.1771 -2.28641,1.7656 -3.79682,1.7656 -1.42709,0 -2.64063,-0.5052 -3.64063,-1.5156 -1,-1.0104 -1.5,-2.2396 -1.5,-3.6875 0,-0.75 0.28646,-1.3907 0.85937,-1.9219 0.60417,-0.53125 1.30209,-0.79688 2.09376,-0.79688 0.69791,0 1.28645,0.27605 1.76562,0.82813 0.48958,0.51045 0.73438,1.14065 0.73438,1.89065 0,0.6875 -0.2448,1.276 -0.73438,1.7656 -0.48958,0.4896 -1.07812,0.7344 -1.76562,0.7344 -0.28126,0 -0.5573,-0.0521 -0.82813,-0.1563 0.78125,1.1459 1.8125,1.7188 3.09375,1.7188 1.20833,0 2.20312,-0.4896 2.98438,-1.4688 C 10.724,13.1198 11.1615,11.9323 11.2344,10.5781 11.2656,9.73438 11.2812,9.25 11.2812,9.125 11.2812,8.13542 11.25,7.32812 11.1875,6.70312 10.3021,6.83854 9.51562,6.90625 8.82812,6.90625 c -2.4375,0 -4.52083,-0.96354 -6.25,-2.89063 -1.687495,-1.95833 -2.531245,-4.281245 -2.531245,-6.96874 0,-0.5625 0.057292,-1.13542 0.171875,-1.71876 C 0.322917,-5.14062 0.453125,-5.65625 0.609375,-6.21875 0.692708,-6.54167 0.927083,-7.05208 1.3125,-7.75 1.45833,-7.95833 1.61979,-8.22135 1.79688,-8.53906 1.97396,-8.85677 2.09375,-9.06771 2.15625,-9.17188 2.33333,-9.52604 2.67708,-10 3.1875,-10.5938 c 0.14583,-0.1666 0.29167,-0.3463 0.4375,-0.539 0.14583,-0.1927 0.27344,-0.349 0.38281,-0.4688 0.10938,-0.1198 0.19011,-0.2161 0.24219,-0.289 0.05208,-0.0729 0.44792,-0.5417 1.1875,-1.4063 0.17708,-0.1666 0.34896,-0.3515 0.51562,-0.5547 0.16667,-0.2031 0.30209,-0.3619 0.40626,-0.4765 0.10416,-0.1146 0.18229,-0.1979 0.23437,-0.25 -0.63542,-2.0938 -1.03125,-3.7657 -1.1875,-5.0157 -0.125,-1 -0.1875,-2.3697 -0.1875,-4.1093 0,-1.5313 0.35417,-2.9636 1.0625,-4.2969 0.67708,-1.3854 1.63542,-2.5208 2.875,-3.4062 0.08333,-0.0521 0.16667,-0.0782 0.25,-0.0782 0.125,0 0.21354,0.0261 0.26563,0.0782 0.94792,1.1458 1.76562,2.6302 2.45312,4.4531 0.7083,1.8333 1.0625,3.4948 1.0625,4.9843 0,1.6876 -0.4063,3.2709 -1.2187,4.75 -0.9167,1.5626 -2.0938,3.1823 -3.5313,4.8594 0.36458,1.1563 0.85938,2.97398 1.48438,5.45315 M 12.1562,5.35938 C 13.0729,5.02604 13.7865,4.45312 14.2969,3.64062 14.8594,2.86979 15.1406,2 15.1406,1.03125 c 0,-1.25 -0.4218,-2.35937 -1.2656,-3.32813 -0.8646,-1 -1.9635,-1.5625 -3.2969,-1.6875 0.75,3.708338 1.2761,6.82292 1.5781,9.34376 M 1.95312,-0.734375 c 0,1.739585 0.70313,3.265625 2.10938,4.578125 1.4375,1.29167 3.05208,1.9375 4.84375,1.9375 0.73958,0 1.46355,-0.05729 2.17185,-0.17187 -0.2812,-2.66667 -0.8385,-5.864588 -1.67185,-9.59376 -1,0.10417 -1.79687,0.45834 -2.39063,1.0625 -0.58333,0.61459 -0.875,1.3073 -0.875,2.07813 0,1.333333 0.71355,2.41667 2.14063,3.25 0.125,0.11458 0.1875,0.24219 0.1875,0.38281 0,0.14063 -0.0625,0.27344 -0.1875,0.39844 C 8.17708,3.3125 8.04688,3.375 7.89062,3.375 7.86979,3.375 7.78646,3.35938 7.64062,3.32812 6.64062,2.77604 5.86979,2.07292 5.32812,1.21875 4.81771,0.302083 4.5625,-0.625 4.5625,-1.5625 c 0,-1.20833 0.38021,-2.30729 1.14062,-3.29688 0.78126,-0.97916 1.8073,-1.60937 3.07813,-1.89062 -0.48958,-1.96875 -0.89583,-3.5052 -1.21875,-4.6094 -0.28125,0.3125 -0.61979,0.6927 -1.01562,1.1406 -0.39584,0.44797 -0.625,0.7188 -0.6875,0.81255 -0.63542,0.82292 -1.1198,1.46354 -1.45313,1.92187 -0.60417,0.82292 -1.04687,1.53126 -1.32813,2.125 -0.29166,0.67709 -0.55208,1.40626 -0.78124,2.1875 -0.22917,0.76042 -0.34376,1.57292 -0.34376,2.437505 M 10.7656,-27.5469 c -1.32289,0.6459 -2.36456,1.5729 -3.12498,2.7813 -0.77083,1.25 -1.15624,2.5989 -1.15624,4.0468 0,1.2605 0.3177,2.9636 0.95312,5.1094 1.26042,-1.5312 2.20833,-2.9479 2.8437,-4.25 0.6667,-1.3646 1,-2.7968 1,-4.2968 0,-1.125 -0.1718,-2.2553 -0.5156,-3.3907"
       vector-effect="none" />
  </g>
  <g
     style="font-style:normal;font-weight:400;font-size:27px;font-family:MScore;fill:#000000;fill-opacity:1;fill-rule:evenodd;stroke:none;stroke-width:1;stroke-linecap:square;stroke-linejoin:bevel"
     id="g626"
     font-style="normal"
     font-weight="400"
     font-size="27"
     transform="matrix(3.125,0,0,3.125,86.735,56.72175)">
    <path
       style="fill-rule:nonzero"
       inkscape:connector-curvature="0"
       id="path628"
       d="m 6.0625,-6.40625 c 0.53125,0 0.98177,-0.0625 1.35156,-0.1875 0.36979,-0.125 0.60677,-0.1875 0.71094,-0.1875 0.125,0 0.21875,0.03646 0.28125,0.10937 0.05208,0.05209 0.08854,0.11459 0.10937,0.1875 0,0.03126 -0.01562,0.08334 -0.04687,0.15626 l -7.671875,8.90624 4.500005,0 0,-3.531245 c 0,-0.229165 0.0625,-0.421875 0.1875,-0.578125 0.20833,-0.17708 0.38541,-0.28125 0.53124,-0.3125 0.22917,-0.10417 0.51042,-0.34896 0.84376,-0.73437 0.28124,-0.32292 0.61458,-0.88021 1,-1.67188 0.05208,-0.10417 0.1302,-0.15625 0.23437,-0.15625 0.20833,0 0.33333,0.125 0.375,0.375 l 0,6.60937 1.92185,0 c 0.25,0 0.3906,0.13542 0.4219,0.40626 0,0.26041 -0.1406,0.39062 -0.4219,0.39062 l -1.92185,0 0,0.21875 c 0,0.69792 0.17187,1.29167 0.51563,1.78125 0.40624,0.5 0.88541,0.75 1.43752,0.75 0.2083,0 0.3125,0.10417 0.3125,0.3125 0,0.20833 -0.1042,0.3125 -0.3125,0.3125 -0.375,0 -0.97398,-0.05208 -1.7969,-0.15625 -0.76042,-0.125 -1.34896,-0.1875 -1.76562,-0.1875 -0.4375,0 -1.02605,0.0625 -1.76563,0.1875 C 4.30208,6.69792 3.71354,6.75 3.32812,6.75 3.10938,6.75 3,6.64583 3,6.4375 3,6.22917 3.10938,6.125 3.32812,6.125 3.86979,6.125 4.34375,5.86458 4.75,5.34375 5.11458,4.83333 5.29688,4.21354 5.29688,3.48438 l -4.500005,0 C 0.494792,3.48438 0.28125,3.40104 0.15625,3.23438 0.0208333,3.10938 -0.046875,2.94792 -0.046875,2.75 -0.046875,2.6875 0.0833333,2.5 0.34375,2.1875 0.645833,1.83333 0.963542,1.40104 1.29688,0.890625 1.68229,0.296875 2.05208,-0.317708 2.40625,-0.953125 2.79167,-1.67188 3.09896,-2.49479 3.32812,-3.42188 c 0.26042,-0.95833 0.39063,-1.92708 0.39063,-2.90624 0,-0.28126 0.125,-0.42188 0.375,-0.42188 0.05208,0 0.16667,0.02604 0.34375,0.07812 0.05208,0.02084 0.16146,0.04688 0.32812,0.07813 0.16667,0.03125 0.30209,0.06771 0.40626,0.10937 0.3125,0.05209 0.60937,0.07813 0.89062,0.07813"
       vector-effect="none" />
  </g>
  <g
     style="font-style:normal;font-weight:400;font-size:27px;font-family:MScore;fill:#000000;fill-opacity:1;fill-rule:evenodd;stroke:none;stroke-width:1;stroke-linecap:square;stroke-linejoin:bevel"
     id="g634"
     font-style="normal"
     font-weight="400"
     font-size="27"
     transform="matrix(3.125,0,0,3.125,86.735,98.38875)">
    <path
       style="fill-rule:nonzero"
       inkscape:connector-curvature="0"
       id="path636"
       d="m 6.0625,-6.40625 c 0.53125,0 0.98177,-0.0625 1.35156,-0.1875 0.36979,-0.125 0.60677,-0.1875 0.71094,-0.1875 0.125,0 0.21875,0.03646 0.28125,0.10937 0.05208,0.05209 0.08854,0.11459 0.10937,0.1875 0,0.03126 -0.01562,0.08334 -0.04687,0.15626 l -7.671875,8.90624 4.500005,0 0,-3.531245 c 0,-0.229165 0.0625,-0.421875 0.1875,-0.578125 0.20833,-0.17708 0.38541,-0.28125 0.53124,-0.3125 0.22917,-0.10417 0.51042,-0.34896 0.84376,-0.73437 0.28124,-0.32292 0.61458,-0.88021 1,-1.67188 0.05208,-0.10417 0.1302,-0.15625 0.23437,-0.15625 0.20833,0 0.33333,0.125 0.375,0.375 l 0,6.60937 1.92185,0 c 0.25,0 0.3906,0.13542 0.4219,0.40626 0,0.26041 -0.1406,0.39062 -0.4219,0.39062 l -1.92185,0 0,0.21875 c 0,0.69792 0.17187,1.29167 0.51563,1.78125 0.40624,0.5 0.88541,0.75 1.43752,0.75 0.2083,0 0.3125,0.10417 0.3125,0.3125 0,0.20833 -0.1042,0.3125 -0.3125,0.3125 -0.375,0 -0.97398,-0.05208 -1.7969,-0.15625 -0.76042,-0.125 -1.34896,-0.1875 -1.76562,-0.1875 -0.4375,0 -1.02605,0.0625 -1.76563,0.1875 C 4.30208,6.69792 3.71354,6.75 3.32812,6.75 3.10938,6.75 3,6.64583 3,6.4375 3,6.22917 3.10938,6.125 3.32812,6.125 3.86979,6.125 4.34375,5.86458 4.75,5.34375 5.11458,4.83333 5.29688,4.21354 5.29688,3.48438 l -4.500005,0 C 0.494792,3.48438 0.28125,3.40104 0.15625,3.23438 0.0208333,3.10938 -0.046875,2.94792 -0.046875,2.75 -0.046875,2.6875 0.0833333,2.5 0.34375,2.1875 0.645833,1.83333 0.963542,1.40104 1.29688,0.890625 1.68229,0.296875 2.05208,-0.317708 2.40625,-0.953125 2.79167,-1.67188 3.09896,-2.49479 3.32812,-3.42188 c 0.26042,-0.95833 0.39063,-1.92708 0.39063,-2.90624 0,-0.28126 0.125,-0.42188 0.375,-0.42188 0.05208,0 0.16667,0.02604 0.34375,0.07812 0.05208,0.02084 0.16146,0.04688 0.32812,0.07813 0.16667,0.03125 0.30209,0.06771 0.40626,0.10937 0.3125,0.05209 0.60937,0.07813 0.89062,0.07813"
       vector-effect="none" />
  </g>
  <g
     style="font-style:normal;font-weight:400;font-size:27px;font-family:MScore;fill:#000000;fill-opacity:1;fill-rule:evenodd;stroke:none;stroke-width:1;stroke-linecap:square;stroke-linejoin:bevel"
     id="g882"
     font-style="normal"
     font-weight="400"
     font-size="27"
     transform="matrix(3.125,0,0,3.125,520.7239,130.64075)">
    <path
       style="fill-rule:nonzero"
       inkscape:connector-curvature="0"
       id="path884"
       d="M 4.71875,-5.25 C 4.41667,-5.25 4.09375,-5.45312 3.75,-5.85938 3.29167,-6.38021 2.90104,-6.78125 2.57812,-7.0625 2.16146,-7.48958 1.69792,-7.70312 1.1875,-7.70312 c -0.489583,0 -0.911458,0.15104 -1.265625,0.45312 l -0.6875,0.84375 C -0.848958,-6.30208 -0.953125,-6.25 -1.07812,-6.25 -1.18229,-6.25 -1.27865,-6.29427 -1.36719,-6.38281 -1.45573,-6.47135 -1.5,-6.56771 -1.5,-6.67188 c 0,-0.10416 0.03646,-0.1927 0.10938,-0.26562 l 2.875,-3.4844 c 0.13541,-0.1875 0.3177,-0.2812 0.54687,-0.2812 0.30208,0 0.625,0.2031 0.96875,0.6093 0.45833,0.52088 0.84896,0.93234 1.17188,1.23442 0.4375,0.40626 0.90104,0.60938 1.39062,0.60938 0.48958,0 0.91146,-0.15104 1.26562,-0.45312 l 0.6875,-0.84376 c 0.08334,-0.10416 0.1875,-0.15624 0.3125,-0.15624 0.125,0 0.22396,0.03645 0.29688,0.10937 0.08333,0.08333 0.125,0.1875 0.125,0.3125 0,0.125 -0.03646,0.22396 -0.10938,0.29687 L 5.28125,-5.53125 C 5.11458,-5.34375 4.92708,-5.25 4.71875,-5.25"
       vector-effect="none" />
  </g>
  <g
     style="font-style:normal;font-weight:400;font-size:27px;font-family:MScore;fill:#000000;fill-opacity:1;fill-rule:evenodd;stroke:none;stroke-width:1;stroke-linecap:square;stroke-linejoin:bevel"
     id="g890"
     font-style="normal"
     font-weight="400"
     font-size="27"
     transform="matrix(3.125,0,0,3.125,541.5729,130.64075)">
    <path
       style="fill-rule:nonzero"
       inkscape:connector-curvature="0"
       id="path892"
       d="M 4.71875,-5.25 C 4.41667,-5.25 4.09375,-5.45312 3.75,-5.85938 3.29167,-6.38021 2.90104,-6.78125 2.57812,-7.0625 2.16146,-7.48958 1.69792,-7.70312 1.1875,-7.70312 c -0.489583,0 -0.911458,0.15104 -1.265625,0.45312 l -0.6875,0.84375 C -0.848958,-6.30208 -0.953125,-6.25 -1.07812,-6.25 -1.18229,-6.25 -1.27865,-6.29427 -1.36719,-6.38281 -1.45573,-6.47135 -1.5,-6.56771 -1.5,-6.67188 c 0,-0.10416 0.03646,-0.1927 0.10938,-0.26562 l 2.875,-3.4844 c 0.13541,-0.1875 0.3177,-0.2812 0.54687,-0.2812 0.30208,0 0.625,0.2031 0.96875,0.6093 0.45833,0.52088 0.84896,0.93234 1.17188,1.23442 0.4375,0.40626 0.90104,0.60938 1.39062,0.60938 0.48958,0 0.91146,-0.15104 1.26562,-0.45312 l 0.6875,-0.84376 c 0.08334,-0.10416 0.1875,-0.15624 0.3125,-0.15624 0.125,0 0.22396,0.03645 0.29688,0.10937 0.08333,0.08333 0.125,0.1875 0.125,0.3125 0,0.125 -0.03646,0.22396 -0.10938,0.29687 L 5.28125,-5.53125 C 5.11458,-5.34375 4.92708,-5.25 4.71875,-5.25"
       vector-effect="none" />
  </g>
  <g
     style="font-style:normal;font-weight:400;font-size:27px;font-family:MScore;fill:#000000;fill-opacity:1;fill-rule:evenodd;stroke:none;stroke-width:1;stroke-linecap:square;stroke-linejoin:bevel"
     id="g898"
     font-style="normal"
     font-weight="400"
     font-size="27"
     transform="matrix(3.125,0,0,3.125,562.42294,130.64075)">
    <path
       style="fill-rule:nonzero"
       inkscape:connector-curvature="0"
       id="path900"
       d="M 4.71875,-5.25 C 4.41667,-5.25 4.09375,-5.45312 3.75,-5.85938 3.29167,-6.38021 2.90104,-6.78125 2.57812,-7.0625 2.16146,-7.48958 1.69792,-7.70312 1.1875,-7.70312 c -0.489583,0 -0.911458,0.15104 -1.265625,0.45312 l -0.6875,0.84375 C -0.848958,-6.30208 -0.953125,-6.25 -1.07812,-6.25 -1.18229,-6.25 -1.27865,-6.29427 -1.36719,-6.38281 -1.45573,-6.47135 -1.5,-6.56771 -1.5,-6.67188 c 0,-0.10416 0.03646,-0.1927 0.10938,-0.26562 l 2.875,-3.4844 c 0.13541,-0.1875 0.3177,-0.2812 0.54687,-0.2812 0.30208,0 0.625,0.2031 0.96875,0.6093 0.45833,0.52088 0.84896,0.93234 1.17188,1.23442 0.4375,0.40626 0.90104,0.60938 1.39062,0.60938 0.48958,0 0.91146,-0.15104 1.26562,-0.45312 l 0.6875,-0.84376 c 0.08334,-0.10416 0.1875,-0.15624 0.3125,-0.15624 0.125,0 0.22396,0.03645 0.29688,0.10937 0.08333,0.08333 0.125,0.1875 0.125,0.3125 0,0.125 -0.03646,0.22396 -0.10938,0.29687 L 5.28125,-5.53125 C 5.11458,-5.34375 4.92708,-5.25 4.71875,-5.25"
       vector-effect="none" />
  </g>
  <g
     style="font-style:normal;font-weight:400;font-size:27px;font-family:MScore;fill:#000000;fill-opacity:1;fill-rule:evenodd;stroke:none;stroke-width:1;stroke-linecap:square;stroke-linejoin:bevel"
     id="g924"
     font-style="normal"
     font-weight="400"
     font-size="27"
     transform="matrix(3.11367,0.26594002,-0.26594002,3.11367,395.81499,112.40275)">
    <path
       style="fill-rule:nonzero"
       inkscape:connector-curvature="0"
       id="path926"
       d="M 4.71875,-5.25 C 4.41667,-5.25 4.09375,-5.45312 3.75,-5.85938 3.29167,-6.38021 2.90104,-6.78125 2.57812,-7.0625 2.16146,-7.48958 1.69792,-7.70312 1.1875,-7.70312 c -0.489583,0 -0.911458,0.15104 -1.265625,0.45312 l -0.6875,0.84375 C -0.848958,-6.30208 -0.953125,-6.25 -1.07812,-6.25 -1.18229,-6.25 -1.27865,-6.29427 -1.36719,-6.38281 -1.45573,-6.47135 -1.5,-6.56771 -1.5,-6.67188 c 0,-0.10416 0.03646,-0.1927 0.10938,-0.26562 l 2.875,-3.4844 c 0.13541,-0.1875 0.3177,-0.2812 0.54687,-0.2812 0.30208,0 0.625,0.2031 0.96875,0.6093 0.45833,0.52088 0.84896,0.93234 1.17188,1.23442 0.4375,0.40626 0.90104,0.60938 1.39062,0.60938 0.48958,0 0.91146,-0.15104 1.26562,-0.45312 l 0.6875,-0.84376 c 0.08334,-0.10416 0.1875,-0.15624 0.3125,-0.15624 0.125,0 0.22396,0.03645 0.29688,0.10937 0.08333,0.08333 0.125,0.1875 0.125,0.3125 0,0.125 -0.03646,0.22396 -0.10938,0.29687 L 5.28125,-5.53125 C 5.11458,-5.34375 4.92708,-5.25 4.71875,-5.25"
       vector-effect="none" />
  </g>
  <g
     style="font-style:normal;font-weight:400;font-size:27px;font-family:MScore;fill:#000000;fill-opacity:1;fill-rule:evenodd;stroke:none;stroke-width:1;stroke-linecap:square;stroke-linejoin:bevel"
     id="g932"
     font-style="normal"
     font-weight="400"
     font-size="27"
     transform="matrix(3.11367,0.26594002,-0.26594002,3.11367,416.58899,114.17675)">
    <path
       style="fill-rule:nonzero"
       inkscape:connector-curvature="0"
       id="path934"
       d="M 4.71875,-5.25 C 4.41667,-5.25 4.09375,-5.45312 3.75,-5.85938 3.29167,-6.38021 2.90104,-6.78125 2.57812,-7.0625 2.16146,-7.48958 1.69792,-7.70312 1.1875,-7.70312 c -0.489583,0 -0.911458,0.15104 -1.265625,0.45312 l -0.6875,0.84375 C -0.848958,-6.30208 -0.953125,-6.25 -1.07812,-6.25 -1.18229,-6.25 -1.27865,-6.29427 -1.36719,-6.38281 -1.45573,-6.47135 -1.5,-6.56771 -1.5,-6.67188 c 0,-0.10416 0.03646,-0.1927 0.10938,-0.26562 l 2.875,-3.4844 c 0.13541,-0.1875 0.3177,-0.2812 0.54687,-0.2812 0.30208,0 0.625,0.2031 0.96875,0.6093 0.45833,0.52088 0.84896,0.93234 1.17188,1.23442 0.4375,0.40626 0.90104,0.60938 1.39062,0.60938 0.48958,0 0.91146,-0.15104 1.26562,-0.45312 l 0.6875,-0.84376 c 0.08334,-0.10416 0.1875,-0.15624 0.3125,-0.15624 0.125,0 0.22396,0.03645 0.29688,0.10937 0.08333,0.08333 0.125,0.1875 0.125,0.3125 0,0.125 -0.03646,0.22396 -0.10938,0.29687 L 5.28125,-5.53125 C 5.11458,-5.34375 4.92708,-5.25 4.71875,-5.25"
       vector-effect="none" />
  </g>
  <g
     style="font-style:normal;font-weight:400;font-size:27px;font-family:MScore;fill:#000000;fill-opacity:1;fill-rule:evenodd;stroke:none;stroke-width:1;stroke-linecap:square;stroke-linejoin:bevel"
     id="g944"
     font-style="normal"
     font-weight="400"
     font-size="27"
     transform="matrix(3.11016,0.30423498,-0.30423498,3.11016,284.89799,101.88075)">
    <path
       style="fill-rule:nonzero"
       inkscape:connector-curvature="0"
       id="path946"
       d="M 4.71875,-5.25 C 4.41667,-5.25 4.09375,-5.45312 3.75,-5.85938 3.29167,-6.38021 2.90104,-6.78125 2.57812,-7.0625 2.16146,-7.48958 1.69792,-7.70312 1.1875,-7.70312 c -0.489583,0 -0.911458,0.15104 -1.265625,0.45312 l -0.6875,0.84375 C -0.848958,-6.30208 -0.953125,-6.25 -1.07812,-6.25 -1.18229,-6.25 -1.27865,-6.29427 -1.36719,-6.38281 -1.45573,-6.47135 -1.5,-6.56771 -1.5,-6.67188 c 0,-0.10416 0.03646,-0.1927 0.10938,-0.26562 l 2.875,-3.4844 c 0.13541,-0.1875 0.3177,-0.2812 0.54687,-0.2812 0.30208,0 0.625,0.2031 0.96875,0.6093 0.45833,0.52088 0.84896,0.93234 1.17188,1.23442 0.4375,0.40626 0.90104,0.60938 1.39062,0.60938 0.48958,0 0.91146,-0.15104 1.26562,-0.45312 l 0.6875,-0.84376 c 0.08334,-0.10416 0.1875,-0.15624 0.3125,-0.15624 0.125,0 0.22396,0.03645 0.29688,0.10937 0.08333,0.08333 0.125,0.1875 0.125,0.3125 0,0.125 -0.03646,0.22396 -0.10938,0.29687 L 5.28125,-5.53125 C 5.11458,-5.34375 4.92708,-5.25 4.71875,-5.25"
       vector-effect="none" />
  </g>
  <g
     style="font-style:normal;font-weight:400;font-size:27px;font-family:MScore;fill:#000000;fill-opacity:1;fill-rule:evenodd;stroke:none;stroke-width:1;stroke-linecap:square;stroke-linejoin:bevel"
     id="g952"
     font-style="normal"
     font-weight="400"
     font-size="27"
     transform="matrix(3.11016,0.30423498,-0.30423498,3.11016,305.64799,103.91075)">
    <path
       style="fill-rule:nonzero"
       inkscape:connector-curvature="0"
       id="path954"
       d="M 4.71875,-5.25 C 4.41667,-5.25 4.09375,-5.45312 3.75,-5.85938 3.29167,-6.38021 2.90104,-6.78125 2.57812,-7.0625 2.16146,-7.48958 1.69792,-7.70312 1.1875,-7.70312 c -0.489583,0 -0.911458,0.15104 -1.265625,0.45312 l -0.6875,0.84375 C -0.848958,-6.30208 -0.953125,-6.25 -1.07812,-6.25 -1.18229,-6.25 -1.27865,-6.29427 -1.36719,-6.38281 -1.45573,-6.47135 -1.5,-6.56771 -1.5,-6.67188 c 0,-0.10416 0.03646,-0.1927 0.10938,-0.26562 l 2.875,-3.4844 c 0.13541,-0.1875 0.3177,-0.2812 0.54687,-0.2812 0.30208,0 0.625,0.2031 0.96875,0.6093 0.45833,0.52088 0.84896,0.93234 1.17188,1.23442 0.4375,0.40626 0.90104,0.60938 1.39062,0.60938 0.48958,0 0.91146,-0.15104 1.26562,-0.45312 l 0.6875,-0.84376 c 0.08334,-0.10416 0.1875,-0.15624 0.3125,-0.15624 0.125,0 0.22396,0.03645 0.29688,0.10937 0.08333,0.08333 0.125,0.1875 0.125,0.3125 0,0.125 -0.03646,0.22396 -0.10938,0.29687 L 5.28125,-5.53125 C 5.11458,-5.34375 4.92708,-5.25 4.71875,-5.25"
       vector-effect="none" />
  </g>
  <g
     style="font-style:normal;font-weight:400;font-size:27px;font-family:MScore;fill:#000000;fill-opacity:1;fill-rule:evenodd;stroke:none;stroke-width:1;stroke-linecap:square;stroke-linejoin:bevel"
     id="g960"
     font-style="normal"
     font-weight="400"
     font-size="27"
     transform="matrix(3.11016,0.30423498,-0.30423498,3.11016,326.44799,105.94575)">
    <path
       style="fill-rule:nonzero"
       inkscape:connector-curvature="0"
       id="path962"
       d="M 4.71875,-5.25 C 4.41667,-5.25 4.09375,-5.45312 3.75,-5.85938 3.29167,-6.38021 2.90104,-6.78125 2.57812,-7.0625 2.16146,-7.48958 1.69792,-7.70312 1.1875,-7.70312 c -0.489583,0 -0.911458,0.15104 -1.265625,0.45312 l -0.6875,0.84375 C -0.848958,-6.30208 -0.953125,-6.25 -1.07812,-6.25 -1.18229,-6.25 -1.27865,-6.29427 -1.36719,-6.38281 -1.45573,-6.47135 -1.5,-6.56771 -1.5,-6.67188 c 0,-0.10416 0.03646,-0.1927 0.10938,-0.26562 l 2.875,-3.4844 c 0.13541,-0.1875 0.3177,-0.2812 0.54687,-0.2812 0.30208,0 0.625,0.2031 0.96875,0.6093 0.45833,0.52088 0.84896,0.93234 1.17188,1.23442 0.4375,0.40626 0.90104,0.60938 1.39062,0.60938 0.48958,0 0.91146,-0.15104 1.26562,-0.45312 l 0.6875,-0.84376 c 0.08334,-0.10416 0.1875,-0.15624 0.3125,-0.15624 0.125,0 0.22396,0.03645 0.29688,0.10937 0.08333,0.08333 0.125,0.1875 0.125,0.3125 0,0.125 -0.03646,0.22396 -0.10938,0.29687 L 5.28125,-5.53125 C 5.11458,-5.34375 4.92708,-5.25 4.71875,-5.25"
       vector-effect="none" />
  </g>
  <g
     style="font-style:normal;font-weight:400;font-size:27px;font-family:MScore;fill:#000000;fill-opacity:1;fill-rule:evenodd;stroke:none;stroke-width:1;stroke-linecap:square;stroke-linejoin:bevel"
     id="g972"
     font-style="normal"
     font-weight="400"
     font-size="27"
     transform="matrix(3.1055,0.34854099,-0.34854099,3.1055,194.486,97.26175)">
    <path
       style="fill-rule:nonzero"
       inkscape:connector-curvature="0"
       id="path974"
       d="M 4.71875,-5.25 C 4.41667,-5.25 4.09375,-5.45312 3.75,-5.85938 3.29167,-6.38021 2.90104,-6.78125 2.57812,-7.0625 2.16146,-7.48958 1.69792,-7.70312 1.1875,-7.70312 c -0.489583,0 -0.911458,0.15104 -1.265625,0.45312 l -0.6875,0.84375 C -0.848958,-6.30208 -0.953125,-6.25 -1.07812,-6.25 -1.18229,-6.25 -1.27865,-6.29427 -1.36719,-6.38281 -1.45573,-6.47135 -1.5,-6.56771 -1.5,-6.67188 c 0,-0.10416 0.03646,-0.1927 0.10938,-0.26562 l 2.875,-3.4844 c 0.13541,-0.1875 0.3177,-0.2812 0.54687,-0.2812 0.30208,0 0.625,0.2031 0.96875,0.6093 0.45833,0.52088 0.84896,0.93234 1.17188,1.23442 0.4375,0.40626 0.90104,0.60938 1.39062,0.60938 0.48958,0 0.91146,-0.15104 1.26562,-0.45312 l 0.6875,-0.84376 c 0.08334,-0.10416 0.1875,-0.15624 0.3125,-0.15624 0.125,0 0.22396,0.03645 0.29688,0.10937 0.08333,0.08333 0.125,0.1875 0.125,0.3125 0,0.125 -0.03646,0.22396 -0.10938,0.29687 L 5.28125,-5.53125 C 5.11458,-5.34375 4.92708,-5.25 4.71875,-5.25"
       vector-effect="none" />
  </g>
  <g
     style="font-style:normal;font-weight:400;font-size:32px;font-family:FreeSerif;fill:none;fill-rule:evenodd;stroke:#000000;stroke-width:1.06666994;stroke-linecap:butt;stroke-linejoin:bevel;stroke-opacity:1"
     id="g412"
     font-style="normal"
     font-weight="400"
     font-size="32"
     transform="matrix(3.125,0,0,3.125,601.13534,34.24294)">
    <polyline
       style="fill:none"
       id="polyline414"
       points="0.533334,0 0.533334,26.6667 "
       vector-effect="none" />
  </g>
  <g
     style="font-style:normal;font-weight:400;font-size:32px;font-family:FreeSerif;fill:none;fill-rule:evenodd;stroke:#000000;stroke-width:3.33333993;stroke-linecap:butt;stroke-linejoin:bevel;stroke-opacity:1"
     id="g416"
     font-style="normal"
     font-weight="400"
     font-size="32"
     transform="matrix(3.125,0,0,3.125,601.13534,34.24294)">
    <polyline
       style="fill:none"
       id="polyline418"
       points="5.4,0 5.4,26.6667 "
       vector-effect="none" />
  </g>
</svg>
